<svg id="Capa_1" width="38" height="38" viewBox="0 0 38 38" fill="none" xmlns="http://www.w3.org/2000/svg"><path fill-rule="evenodd" clip-rule="evenodd" d="M2.88309 17.0099C2.88309 9.21875 9.21876 2.88486 17.0081 2.88486C24.7957 2.88486 31.1313 9.21875 31.1313 17.0099C31.1313 24.801 24.7957 31.1348 17.0081 31.1348C9.21876 31.1348 2.88309 24.801 2.88309 17.0099ZM28.9543 27.6291C31.4745 24.7974 33.0144 21.084 33.0144 17.0099C33.0144 8.18217 25.8323 1 17.0081 1C8.18394 1 1 8.18217 1 17.0099C1 25.8375 8.18394 33.0197 17.0081 33.0197C21.0823 33.0197 24.7957 31.4727 27.6221 28.9596L35.3919 36.7294C35.5784 36.9124 35.8195 37.004 36.0607 37.004C36.3 37.004 36.5411 36.9124 36.7241 36.7294C37.092 36.3616 37.092 35.7668 36.7241 35.3989L28.9543 27.6291Z" fill="black" stroke="black" stroke-width="0.2"/></svg>
